<svg id="Layer_1" data-name="Layer 1" xmlns="http://www.w3.org/2000/svg" viewBox="0 0 64 64"><title>instagram</title><g style="isolation:isolate"><path d="M21.34,32A10.67,10.67,0,1,1,32,42.67,10.67,10.67,0,0,1,21.34,32m-5.77,0A16.43,16.43,0,1,0,32,15.57,16.43,16.43,0,0,0,15.57,32M45.24,14.92a3.84,3.84,0,1,0,3.84-3.84,3.84,3.84,0,0,0-3.84,3.84M19.07,58a17.68,17.68,0,0,1-5.94-1.1,10,10,0,0,1-3.68-2.39,9.89,9.89,0,0,1-2.39-3.68A17.68,17.68,0,0,1,6,44.93C5.8,41.56,5.77,40.55,5.77,32s0-9.56.19-12.93a17.76,17.76,0,0,1,1.1-5.94A10,10,0,0,1,9.45,9.44a9.88,9.88,0,0,1,3.68-2.39A17.68,17.68,0,0,1,19.07,6c3.37-.16,4.39-.19,12.93-.19s9.56,0,12.93.19a17.76,17.76,0,0,1,5.94,1.1,9.92,9.92,0,0,1,3.68,2.39,9.93,9.93,0,0,1,2.39,3.68A17.68,17.68,0,0,1,58,19.07c.16,3.38.19,4.39.19,12.93s0,9.56-.19,12.93a17.74,17.74,0,0,1-1.1,5.94,10.59,10.59,0,0,1-6.07,6.07A17.68,17.68,0,0,1,44.93,58c-3.37.16-4.39.19-12.93.19s-9.56,0-12.93-.19M18.81.19A23.47,23.47,0,0,0,11,1.68,15.7,15.7,0,0,0,5.37,5.37,15.66,15.66,0,0,0,1.68,11,23.47,23.47,0,0,0,.19,18.81C0,22.22,0,23.31,0,32s0,9.78.19,13.19A23.47,23.47,0,0,0,1.68,53a15.65,15.65,0,0,0,3.69,5.67A15.69,15.69,0,0,0,11,62.32a23.49,23.49,0,0,0,7.77,1.49C22.22,64,23.31,64,32,64s9.78,0,13.19-.19A23.47,23.47,0,0,0,53,62.32,16.36,16.36,0,0,0,62.32,53a23.41,23.41,0,0,0,1.49-7.77C64,41.78,64,40.69,64,32s0-9.78-.19-13.19A23.47,23.47,0,0,0,62.32,11a15.74,15.74,0,0,0-3.69-5.67A15.69,15.69,0,0,0,53,1.68,23.43,23.43,0,0,0,45.2.19C41.78,0,40.69,0,32,0s-9.78,0-13.2.19" fill="#231f20"/></g></svg>