<?xml version="1.0" encoding="utf-8"?>
<!-- Generator: Adobe Illustrator 21.0.0, SVG Export Plug-In . SVG Version: 6.00 Build 0)  -->
<!DOCTYPE svg PUBLIC "-//W3C//DTD SVG 1.1//EN" "http://www.w3.org/Graphics/SVG/1.1/DTD/svg11.dtd">
<svg version="1.1" id="Layer_1" xmlns="http://www.w3.org/2000/svg" xmlns:xlink="http://www.w3.org/1999/xlink" x="0px" y="0px"
	 viewBox="0 0 1400 373.1" style="enable-background:new 0 0 1400 373.1;" xml:space="preserve">
<g>
	<g>
		<path d="M523.3,209.3c0,6.5-1,12.3-3.2,17.2c-2.2,5.1-5.1,9.2-8.9,12.7c-3.9,3.5-8.4,6.1-13.7,7.8s-11,2.7-16.9,2.7h-59.8V112.4
			h56.9c9.2,0,17.2,1.6,23.8,4.9c6.6,3.3,11.5,7.9,14.9,14c3.3,6.1,5.1,13,5.1,20.9c0,6.6-1.6,12.3-4.9,16.7
			c-3.3,4.6-6.6,7.9-10.1,10.2c4.5,2.7,8.5,6.2,11.8,10.7C521.6,194.6,523.3,200.9,523.3,209.3z M487.7,154c0-3-1-5.6-2.9-7.9
			c-1.9-2.2-5.1-3.3-9.2-3.3h-20.9v22.4h20.9c4.2,0,7.2-1.2,9.2-3.3C486.7,159.6,487.7,157,487.7,154z M489.6,207.4
			c0-3.3-1-6.1-2.9-8.5c-2-2.3-5.1-3.5-9.4-3.5h-22.8v24h22.8c4.3,0,7.4-1.2,9.4-3.6C488.6,213.5,489.6,210.7,489.6,207.4z"/>
		<path d="M642.8,249.7h-93.2V112.4h93.2v30h-59.6v22.9h50.9v30h-50.9v24.2h59.6V249.7z"/>
		<path d="M765.4,207.8c0,8.9-2.3,16.7-7.1,23.2c-4.8,6.5-11.1,11.4-19.2,14.9c-8.1,3.3-17,5.1-26.7,5.1c-11.4,0-21.2-1.3-29.7-4
			c-8.4-2.7-15.9-7.4-22.4-14l21.6-21.6c3.3,3.3,7.8,5.9,13.4,7.4c5.5,1.6,11.3,2.3,17.2,2.3c13.1,0,19.6-4.2,19.6-12.4
			c0-3.5-0.9-6.2-2.7-8.1s-4.8-3.2-9.1-3.6l-16.6-2.3c-12.1-1.7-21.4-5.8-27.6-12.1c-6.4-6.5-9.4-15.6-9.4-27.6
			c0-8.4,2-15.7,6.1-22.4c4-6.5,9.8-11.7,17.5-15.4c7.5-3.8,16.5-5.5,26.6-5.5s18.9,1.3,26.6,3.9c7.5,2.6,14.1,6.8,19.8,12.4
			L742,149.1c-3.5-3.5-7.4-5.8-11.4-6.6c-4-1-8.9-1.4-14.7-1.4c-5.3,0-9.5,1.3-12.3,3.9c-2.9,2.6-4.2,5.5-4.2,8.8
			c0,2.5,0.9,4.6,2.7,6.4c2.2,2.2,5.3,3.5,9.4,4l16.6,2.3c12,1.7,21.1,5.5,27,11.4c3.6,3.5,6.2,7.6,7.8,12.6
			C764.5,195.1,765.4,201.1,765.4,207.8z"/>
		<path d="M892.7,156.6c0,7.8-1.9,15-5.5,21.6c-3.8,6.8-9.1,12.1-16,16.3c-7.1,4.2-15.4,6.2-25.3,6.2h-20.6v48.9h-33.8V112.4h54.3
			c9.8,0,18.3,2,25.3,6.2c7.1,4,12.4,9.5,16,16.2C890.8,141.6,892.7,148.8,892.7,156.6z M858.9,156.7c0-2.5-0.6-4.8-1.7-6.8
			c-1.2-2.2-2.9-3.9-5.1-5.1c-2.2-1.3-4.9-1.9-7.8-1.9h-19.2v27.7h19.2c3,0,5.6-0.6,7.8-1.9c2.2-1.3,3.9-3,5.1-5.1
			C858.3,161.4,858.9,159.2,858.9,156.7z"/>
		<path d="M1014.6,181.1v4.6c0,7.6-0.3,14.3-0.9,19.8c-0.6,5.5-1.7,10.8-3.8,16c-2,5.2-5.1,9.8-9.2,14c-5.1,5.1-10.7,8.9-16.7,11.5
			c-6.1,2.6-13.3,3.9-21.5,3.9c-5.6,0-10.7-0.6-15.2-1.7c-4.5-1.2-8.7-2.9-12.4-5.2c-3.8-2.3-7.4-5.1-10.8-8.5
			c-6.1-6.1-9.8-12.8-11.4-20.5c-1.6-7.6-2.5-17.3-2.5-29.2v-4.6v-4.6c0-11.8,0.9-21.5,2.5-29.3c1.6-7.6,5.5-14.6,11.4-20.5
			c5.2-5.2,10.8-9.1,16.9-11.5s13.1-3.8,21.4-3.8c8.2,0,15.4,1.3,21.5,3.8c6.1,2.6,11.7,6.4,16.9,11.5c4.2,4.2,7.2,8.8,9.2,14
			c2,5.2,3.3,10.5,3.8,16c0.6,5.5,0.9,12.1,0.9,19.8L1014.6,181.1L1014.6,181.1z M980.9,181.1c0-11.7-0.4-19.6-1.2-24
			c-0.7-4.3-2-7.5-3.8-9.8c-1.3-1.7-3-3.2-5.5-4.3c-2.5-1.2-5.1-1.7-8.1-1.7c-2.9,0-5.5,0.6-7.8,1.6c-2.3,1.2-4.2,2.6-5.6,4.3
			c-1.2,1.4-2,3.2-2.7,5.3c-0.7,2.2-1.3,5.3-1.6,9.7c-0.4,4.3-0.6,10.5-0.6,18.6s0.1,14.3,0.6,18.6c0.4,4.3,0.9,7.5,1.6,9.7
			c0.7,2,1.6,3.8,2.7,5.3c3.2,4.2,7.6,6.2,13.4,6.2s10.4-2,13.6-6.2c1.7-2.5,3-5.8,3.8-9.8C980.4,200.8,980.9,192.8,980.9,181.1z"/>
		<path d="M1156.4,249.7h-39.3l-31.6-56.3l-11.5,13.3v43h-33.5V112.4h33.3v48.6l39.7-48.6h41.3l-46.9,55.6L1156.4,249.7z"/>
		<path d="M1267.1,249.7h-93.2V112.4h93.2v30h-59.6v22.9h50.9v30h-50.9v24.2h59.6V249.7z"/>
		<path d="M1400,249.7h-29.4l-44-69v69h-33.8V112.4h29.4l43.9,69v-69h33.9V249.7z"/>
	</g>
	<path d="M318.5,54.6c-72.7-72.7-191.1-72.7-263.8,0l0,0l0,0l0,0L52.2,57l0,0C18.5,91.9,0,137.8,0,186.5
		c0,49.8,19.5,96.7,54.7,131.9s82.1,54.7,131.9,54.7l0,0c49.8,0,96.6-19.3,131.8-54.6l0,0l0,0l0,0
		C391.3,245.6,391.3,127.3,318.5,54.6 M306.8,66.1c66.4,66.4,66.4,174.4,0,240.7c-56,55.9-146.9,55.9-202.8,0
		c-11.7-11.7-21.1-25.1-28-39.5c-0.1-0.3-0.3-0.4-0.3-0.7c-0.7-1.4-1.3-2.9-1.9-4.3c-0.3-0.9-0.7-1.6-1-2.5c-0.4-1-0.7-1.9-1.2-2.9
		c-0.4-1.3-1-2.6-1.4-3.9c-0.1-0.6-0.4-1.2-0.6-1.7c-0.6-1.7-1.2-3.3-1.6-5.1c0-0.3-0.1-0.6-0.1-0.9c-0.6-2-1.2-4-1.6-5.9v-0.1
		c-9.2-38-2.7-79.1,19.3-112.7c0-0.1,0.1-0.1,0.1-0.3c1.2-1.6,2.3-3.3,3.5-4.9c0.3-0.3,0.4-0.7,0.7-1c1-1.4,2.2-2.7,3.2-4
		c0.4-0.6,0.9-1.2,1.3-1.6c1-1.3,2.2-2.5,3.2-3.8c0.6-0.6,1-1.2,1.6-1.7c1.6-1.7,3.3-3.5,5.1-5.2c1-1,2-2,3.2-3c0,0,0,0,0.1-0.1
		c0.9-0.9,1.9-1.6,2.7-2.5c0.1-0.1,0.4-0.4,0.6-0.6c0.9-0.7,1.6-1.3,2.5-1.9c0.4-0.3,0.7-0.6,1.2-0.9c0.7-0.4,1.3-1,2-1.4
		c0.6-0.4,1.2-0.7,1.7-1.2c0.6-0.3,1-0.7,1.6-1c0.7-0.4,1.4-1,2.2-1.4c0.4-0.3,0.7-0.4,1.2-0.7c0.9-0.6,1.9-1,2.7-1.6
		c0.3-0.1,0.4-0.3,0.7-0.3c1.2-0.6,2.2-1.2,3.3-1.6c0.1,0,0.1,0,0.3-0.1c5.2-2.5,10.7-4.3,16.2-5.6c0.1,0,0.3,0,0.4-0.1
		c1.2-0.3,2.5-0.6,3.6-0.7c0.6-0.1,1-0.1,1.6-0.3c0.9-0.1,1.7-0.3,2.6-0.4c1.3-0.1,2.6-0.3,4-0.4c0,0,0.1,0,0.3,0
		c2.9-0.3,5.9-0.4,8.9-0.4c24,0,46.6,9.4,63.6,26.4c12,12,19.8,26.4,23.7,41.7c-3.3-5.5-7.4-10.7-12-15.4
		c-15-15-35.1-23.2-56.3-23.2s-41.3,8.2-56.3,23.2l0,0l0,0c-41.4,41.4-41.4,109,0,150.4c20.1,20.1,46.8,31.2,75.2,31.2
		s55.1-11.1,75.2-31.2c1.9-1.9,3.9-3.9,5.6-5.9c56.6-62.6,54.7-159.8-5.6-220.1c-10.5-10.5-22.2-19.2-34.6-26.3
		c-0.6-0.3-1.3-0.7-1.9-1c-1.3-0.7-2.5-1.3-3.8-2c-0.3-0.1-0.6-0.3-0.9-0.4C264.3,32.9,287.4,46.6,306.8,66.1 M141.9,141.7
		L141.9,141.7c12-11.8,27.7-18.5,44.6-18.5s32.8,6.5,44.6,18.5c24.7,24.7,24.7,64.7,0,89.3c-12,11.8-27.7,18.5-44.6,18.5
		s-32.8-6.6-44.7-18.5C117.3,206.5,117.3,166.4,141.9,141.7 M16.3,186.5c0-45.3,17.6-88,49.6-120.2l0.1-0.1c1.3-1.3,2.7-2.6,4.2-3.9
		c0.3-0.3,0.7-0.7,1-1c1.2-1,2.3-2,3.5-3c0.7-0.6,1.3-1.2,2-1.7c0.9-0.7,1.9-1.4,2.9-2.2c1-0.7,1.9-1.4,2.9-2.3c0.7-0.4,1.3-1,2-1.4
		c1.3-0.9,2.6-1.9,3.9-2.7c0.4-0.3,0.7-0.4,1.2-0.7c1.6-1,3.3-2.2,5.1-3.2c0,0,0.1,0,0.1-0.1c24.4-14.3,52.1-20.9,79.5-19.6h0.1
		c2,0.1,3.9,0.3,5.9,0.4c0.3,0,0.7,0,1,0.1c2.2,0.1,4.2,0.4,6.4,0.7c0.1,0,0.3,0,0.6,0c2.2,0.3,4.3,0.7,6.5,1.2c0.1,0,0.1,0,0.3,0
		c2.2,0.4,4.2,0.9,6.4,1.4c0.1,0,0.3,0,0.4,0.1c1.9,0.4,3.9,1,5.8,1.6c0.3,0.1,0.7,0.1,1,0.3c1.6,0.4,3.3,1,4.9,1.6
		c0.6,0.1,1.2,0.4,1.9,0.6c1.3,0.4,2.5,0.9,3.8,1.4c1,0.4,2,0.7,3,1.2c0.7,0.3,1.6,0.7,2.3,1c1.4,0.6,2.9,1.3,4.3,1.9
		c0.3,0.1,0.4,0.3,0.7,0.3c14.4,6.9,27.9,16.3,39.5,28c54.1,54.1,55.9,141.3,5.1,197.6c-1.6,1.7-3.3,3.6-5.1,5.3
		c-17,17-39.5,26.4-63.6,26.4c-24,0-46.6-9.4-63.6-26.4c-12-12-19.8-26.4-23.7-41.7c3.3,5.5,7.2,10.7,12,15.4
		c15,15,34.9,23.4,56.3,23.2c21.2,0,41.1-8.2,56.1-23.2l0,0l0,0l0,0l0,0c0.3-0.3,0.6-0.6,0.7-0.7c0.4-0.4,0.7-0.9,1.2-1.3
		c0.7-0.9,1.6-1.6,2.3-2.5c0.4-0.4,0.7-0.9,1-1.3c0.9-1,1.7-1.9,2.5-2.9c0.3-0.3,0.4-0.6,0.7-0.9c0.9-1.2,1.7-2.3,2.6-3.5
		c0.1-0.1,0.1-0.3,0.3-0.4c29.6-41.6,25.8-99.6-11.4-136.8c-12.7-12.7-27.7-21.5-43.9-26.4c-0.1,0-0.4-0.1-0.6-0.1
		c-1.3-0.4-2.7-0.7-4-1.2c-0.3-0.1-0.6-0.1-1-0.3c-1.3-0.3-2.7-0.6-4-0.9c-0.3,0-0.6-0.1-1-0.3c-1.6-0.3-3.2-0.6-4.8-0.9
		c-0.1,0-0.3,0-0.4,0c-6.9-1-14-1.4-21.1-1h-0.1c-1.6,0.1-3.3,0.1-4.9,0.4c-1.3,0.1-2.6,0.3-3.9,0.4c-0.3,0-0.7,0.1-1.2,0.1
		c-12,1.7-23.4,5.5-34.1,11l0,0c-1.3,0.7-2.6,1.4-3.9,2.2c-0.3,0.1-0.4,0.3-0.7,0.4c-1.2,0.6-2.2,1.3-3.2,2
		c-0.4,0.3-0.9,0.6-1.3,0.9c-0.9,0.6-1.6,1.2-2.5,1.7c-0.6,0.4-1.3,0.9-1.9,1.3s-1.2,0.9-1.7,1.3c-0.9,0.6-1.6,1.3-2.5,1.9
		c-0.4,0.3-0.7,0.6-1.2,0.9c-1,0.9-2,1.7-3,2.6c-0.1,0.1-0.3,0.3-0.4,0.4c-1.2,1-2.3,2.2-3.5,3.2C89.9,94,88,96,86.2,98
		c-0.6,0.6-1,1.2-1.6,1.7c-1.3,1.4-2.5,2.9-3.8,4.3c-0.4,0.6-0.9,1-1.3,1.6c-1.3,1.6-2.5,3.2-3.8,4.8c-0.3,0.3-0.4,0.6-0.6,0.9
		c-1.3,1.9-2.7,3.8-4,5.8l0,0c-16.3,26.3-25.4,56.6-25.5,88.3c0,18.2,3,35.8,8.8,52.5c0,0.1,0.1,0.4,0.1,0.6c0.7,1.9,1.3,3.8,2,5.5
		c0.3,0.7,0.4,1.3,0.7,2c0.6,1.3,1.2,2.6,1.7,3.9c0.6,1.2,1,2.3,1.6,3.5c0.3,0.7,0.7,1.3,1,2c7.5,15.6,17.8,30.2,30.7,43.2
		c12.6,12.6,26.7,22.5,41.9,30c-25.4-8.2-48.6-22.4-68.1-41.7C34.1,274.7,16.3,231.9,16.3,186.5 M153.1,195.6c-5.1,0-9.1-4-9.1-9.1
		s4-9.1,9.1-9.1h24.4v-24.2c0-5.1,4-9.1,9.1-9.1s9.1,4,9.1,9.1v24.2H220c5.1,0,9.1,4,9.1,9.1s-4,9.1-9.1,9.1h-24.2v24.2
		c0,5.1-4,9.1-9.1,9.1s-9.1-4-9.1-9.1v-24.2H153.1"/>
</g>
</svg>
