<?xml version="1.0" encoding="utf-8"?>
<!-- Generator: Adobe Illustrator 21.0.0, SVG Export Plug-In . SVG Version: 6.00 Build 0)  -->
<!DOCTYPE svg PUBLIC "-//W3C//DTD SVG 1.1//EN" "http://www.w3.org/Graphics/SVG/1.1/DTD/svg11.dtd">
<svg version="1.1" id="Layer_1" xmlns="http://www.w3.org/2000/svg" xmlns:xlink="http://www.w3.org/1999/xlink" x="0px" y="0px"
	 viewBox="0 0 970 258.5" style="enable-background:new 0 0 970 258.5;" xml:space="preserve">
<g>
	<g>
		<path d="M362.6,145c0,4.5-0.7,8.5-2.2,11.9c-1.5,3.5-3.5,6.4-6.2,8.8c-2.7,2.4-5.8,4.2-9.5,5.4c-3.7,1.2-7.6,1.9-11.7,1.9h-41.4
			V77.9H331c6.4,0,11.9,1.1,16.5,3.4c4.6,2.3,8,5.5,10.3,9.7c2.3,4.2,3.5,9,3.5,14.5c0,4.6-1.1,8.5-3.4,11.6c-2.3,3.2-4.6,5.5-7,7.1
			c3.1,1.9,5.9,4.3,8.2,7.4C361.4,134.8,362.6,139.2,362.6,145z M337.9,106.7c0-2.1-0.7-3.9-2-5.5c-1.3-1.5-3.5-2.3-6.4-2.3h-14.5
			v15.5h14.5c2.9,0,5-0.8,6.4-2.3C337.2,110.6,337.9,108.8,337.9,106.7z M339.2,143.7c0-2.3-0.7-4.2-2-5.9c-1.4-1.6-3.5-2.4-6.5-2.4
			h-15.8v16.6h15.8c3,0,5.1-0.8,6.5-2.5C338.5,147.9,339.2,146,339.2,143.7z"/>
		<path d="M445.4,173h-64.6V77.9h64.6v20.8h-41.3v15.9h35.3v20.8h-35.3v16.8h41.3V173z"/>
		<path d="M530.3,144c0,6.2-1.6,11.6-4.9,16.1c-3.3,4.5-7.7,7.9-13.3,10.3c-5.6,2.3-11.8,3.5-18.5,3.5c-7.9,0-14.7-0.9-20.6-2.8
			c-5.8-1.9-11-5.1-15.5-9.7l15-15c2.3,2.3,5.4,4.1,9.3,5.1c3.8,1.1,7.8,1.6,11.9,1.6c9.1,0,13.6-2.9,13.6-8.6
			c0-2.4-0.6-4.3-1.9-5.6c-1.3-1.3-3.3-2.2-6.3-2.5l-11.5-1.6c-8.4-1.2-14.8-4-19.1-8.4c-4.4-4.5-6.5-10.8-6.5-19.1
			c0-5.8,1.4-10.9,4.2-15.5c2.8-4.5,6.8-8.1,12.1-10.7c5.2-2.6,11.4-3.8,18.4-3.8c7,0,13.1,0.9,18.4,2.7c5.2,1.8,9.8,4.7,13.7,8.6
			l-14.7,14.7c-2.4-2.4-5.1-4-7.9-4.6c-2.8-0.7-6.2-1-10.2-1c-3.7,0-6.6,0.9-8.5,2.7c-2,1.8-2.9,3.8-2.9,6.1c0,1.7,0.6,3.2,1.9,4.4
			c1.5,1.5,3.7,2.4,6.5,2.8l11.5,1.6c8.3,1.2,14.6,3.8,18.7,7.9c2.5,2.4,4.3,5.3,5.4,8.7C529.7,135.2,530.3,139.3,530.3,144z"/>
		<path d="M618.5,108.5c0,5.4-1.3,10.4-3.8,15c-2.6,4.7-6.3,8.4-11.1,11.3c-4.9,2.9-10.7,4.3-17.5,4.3h-14.3V173h-23.4V77.9H586
			c6.8,0,12.7,1.4,17.5,4.3c4.9,2.8,8.6,6.6,11.1,11.2C617.2,98.1,618.5,103.1,618.5,108.5z M595.1,108.6c0-1.7-0.4-3.3-1.2-4.7
			c-0.8-1.5-2-2.7-3.5-3.5c-1.5-0.9-3.4-1.3-5.4-1.3h-13.3v19.2H585c2.1,0,3.9-0.4,5.4-1.3c1.5-0.9,2.7-2.1,3.5-3.5
			C594.7,111.8,595.1,110.3,595.1,108.6z"/>
		<path d="M703,125.5v3.2c0,5.3-0.2,9.9-0.6,13.7c-0.4,3.8-1.2,7.5-2.6,11.1c-1.4,3.6-3.5,6.8-6.4,9.7c-3.5,3.5-7.4,6.2-11.6,8
			s-9.2,2.7-14.9,2.7c-3.9,0-7.4-0.4-10.5-1.2c-3.1-0.8-6-2-8.6-3.6c-2.6-1.6-5.1-3.5-7.5-5.9c-4.2-4.2-6.8-8.9-7.9-14.2
			c-1.1-5.3-1.7-12-1.7-20.2v-3.2v-3.2c0-8.2,0.6-14.9,1.7-20.3c1.1-5.3,3.8-10.1,7.9-14.2c3.6-3.6,7.5-6.3,11.7-8
			c4.2-1.7,9.1-2.6,14.8-2.6c5.7,0,10.7,0.9,14.9,2.6c4.2,1.8,8.1,4.4,11.7,8c2.9,2.9,5,6.1,6.4,9.7c1.4,3.6,2.3,7.3,2.6,11.1
			c0.4,3.8,0.6,8.4,0.6,13.7V125.5z M679.6,125.5c0-8.1-0.3-13.6-0.8-16.6c-0.5-3-1.4-5.2-2.6-6.8c-0.9-1.2-2.1-2.2-3.8-3
			c-1.7-0.8-3.5-1.2-5.6-1.2c-2,0-3.8,0.4-5.4,1.1c-1.6,0.8-2.9,1.8-3.9,3c-0.8,1-1.4,2.2-1.9,3.7c-0.5,1.5-0.9,3.7-1.1,6.7
			c-0.3,3-0.4,7.3-0.4,12.9c0,5.6,0.1,9.9,0.4,12.9c0.3,3,0.6,5.2,1.1,6.7c0.5,1.4,1.1,2.6,1.9,3.7c2.2,2.9,5.3,4.3,9.3,4.3
			c4,0,7.2-1.4,9.4-4.3c1.2-1.7,2.1-4,2.6-6.8C679.3,139.1,679.6,133.6,679.6,125.5z"/>
		<path d="M801.2,173H774l-21.9-39l-8,9.2V173h-23.2V77.9H744v33.7l27.5-33.7h28.6l-32.5,38.5L801.2,173z"/>
		<path d="M877.9,173h-64.6V77.9h64.6v20.8h-41.3v15.9h35.3v20.8h-35.3v16.8h41.3V173z"/>
		<path d="M970,173h-20.4l-30.5-47.8V173h-23.4V77.9h20.4l30.4,47.8V77.9H970V173z"/>
	</g>
	<path d="M220.7,37.8C170.3-12.6,88.3-12.6,37.9,37.8l0,0l0,0c0,0,0,0,0,0l-1.7,1.7v0C12.8,63.7,0,95.5,0,129.2
		c0,34.5,13.5,67,37.9,91.4c24.4,24.4,56.9,37.9,91.4,37.9l0,0c34.5,0,66.9-13.4,91.3-37.8c0,0,0,0,0,0s0,0,0,0c0,0,0,0,0,0
		C271.1,170.2,271.1,88.2,220.7,37.8 M212.6,45.8c46,46,46,120.8,0,166.8c-38.8,38.7-101.8,38.7-140.5,0
		c-8.1-8.1-14.6-17.4-19.4-27.4c-0.1-0.2-0.2-0.3-0.2-0.5c-0.5-1-0.9-2-1.3-3c-0.2-0.6-0.5-1.1-0.7-1.7c-0.3-0.7-0.5-1.3-0.8-2
		c-0.3-0.9-0.7-1.8-1-2.7c-0.1-0.4-0.3-0.8-0.4-1.2c-0.4-1.2-0.8-2.3-1.1-3.5c0-0.2-0.1-0.4-0.1-0.6c-0.4-1.4-0.8-2.8-1.1-4.1
		c0,0,0-0.1,0-0.1c-6.4-26.3-1.9-54.8,13.4-78.1c0-0.1,0.1-0.1,0.1-0.2c0.8-1.1,1.6-2.3,2.4-3.4c0.2-0.2,0.3-0.5,0.5-0.7
		c0.7-1,1.5-1.9,2.2-2.8c0.3-0.4,0.6-0.8,0.9-1.1c0.7-0.9,1.5-1.7,2.2-2.6c0.4-0.4,0.7-0.8,1.1-1.2c1.1-1.2,2.3-2.4,3.5-3.6
		c0.7-0.7,1.4-1.4,2.2-2.1c0,0,0,0,0.1-0.1c0.6-0.6,1.3-1.1,1.9-1.7c0.1-0.1,0.3-0.3,0.4-0.4c0.6-0.5,1.1-0.9,1.7-1.3
		c0.3-0.2,0.5-0.4,0.8-0.6c0.5-0.3,0.9-0.7,1.4-1c0.4-0.3,0.8-0.5,1.2-0.8c0.4-0.2,0.7-0.5,1.1-0.7c0.5-0.3,1-0.7,1.5-1
		c0.3-0.2,0.5-0.3,0.8-0.5c0.6-0.4,1.3-0.7,1.9-1.1c0.2-0.1,0.3-0.2,0.5-0.2c0.8-0.4,1.5-0.8,2.3-1.1c0.1,0,0.1,0,0.2-0.1
		c3.6-1.7,7.4-3,11.2-3.9c0.1,0,0.2,0,0.3-0.1c0.8-0.2,1.7-0.4,2.5-0.5c0.4-0.1,0.7-0.1,1.1-0.2c0.6-0.1,1.2-0.2,1.8-0.3
		c0.9-0.1,1.8-0.2,2.8-0.3c0,0,0.1,0,0.2,0c2-0.2,4.1-0.3,6.2-0.3c16.6,0,32.3,6.5,44.1,18.3c8.3,8.3,13.7,18.3,16.4,28.9
		c-2.3-3.8-5.1-7.4-8.3-10.7c-10.4-10.4-24.3-16.1-39-16.1c-14.7,0-28.6,5.7-39,16.1v0l0,0c-28.7,28.7-28.7,75.5,0,104.2
		c13.9,13.9,32.4,21.6,52.1,21.6c19.7,0,38.2-7.7,52.1-21.6c1.3-1.3,2.7-2.7,3.9-4.1c39.2-43.4,37.9-110.7-3.9-152.5
		c-7.3-7.3-15.4-13.3-24-18.2c-0.4-0.2-0.9-0.5-1.3-0.7c-0.9-0.5-1.7-0.9-2.6-1.4c-0.2-0.1-0.4-0.2-0.6-0.3
		C183.1,22.8,199.1,32.3,212.6,45.8 M98.3,98.2L98.3,98.2c8.3-8.2,19.2-12.8,30.9-12.8c11.7,0,22.7,4.5,30.9,12.8
		c17.1,17.1,17.1,44.8,0,61.9c-8.3,8.2-19.2,12.8-30.9,12.8c-11.7,0-22.7-4.6-31-12.8C81.3,143.1,81.3,115.3,98.3,98.2 M11.3,129.2
		c0-31.4,12.2-61,34.4-83.3l0.1-0.1c0.9-0.9,1.9-1.8,2.9-2.7c0.2-0.2,0.5-0.5,0.7-0.7c0.8-0.7,1.6-1.4,2.4-2.1
		c0.5-0.4,0.9-0.8,1.4-1.2c0.6-0.5,1.3-1,2-1.5c0.7-0.5,1.3-1,2-1.6c0.5-0.3,0.9-0.7,1.4-1c0.9-0.6,1.8-1.3,2.7-1.9
		c0.3-0.2,0.5-0.3,0.8-0.5c1.1-0.7,2.3-1.5,3.5-2.2c0,0,0.1,0,0.1-0.1c16.9-9.9,36.1-14.5,55.1-13.6h0.1c1.4,0.1,2.7,0.2,4.1,0.3
		c0.2,0,0.5,0,0.7,0.1c1.5,0.1,2.9,0.3,4.4,0.5c0.1,0,0.2,0,0.4,0c1.5,0.2,3,0.5,4.5,0.8c0.1,0,0.1,0,0.2,0c1.5,0.3,2.9,0.6,4.4,1
		c0.1,0,0.2,0,0.3,0.1c1.3,0.3,2.7,0.7,4,1.1c0.2,0.1,0.5,0.1,0.7,0.2c1.1,0.3,2.3,0.7,3.4,1.1c0.4,0.1,0.8,0.3,1.3,0.4
		c0.9,0.3,1.7,0.6,2.6,1c0.7,0.3,1.4,0.5,2.1,0.8c0.5,0.2,1.1,0.5,1.6,0.7c1,0.4,2,0.9,3,1.3c0.2,0.1,0.3,0.2,0.5,0.2
		c10,4.8,19.3,11.3,27.4,19.4c37.5,37.5,38.7,97.9,3.5,136.9c-1.1,1.2-2.3,2.5-3.5,3.7c-11.8,11.8-27.4,18.3-44.1,18.3
		c-16.6,0-32.3-6.5-44.1-18.3c-8.3-8.3-13.7-18.3-16.4-28.9c2.3,3.8,5,7.4,8.3,10.7c10.4,10.4,24.2,16.2,39,16.1
		c14.7,0,28.5-5.7,38.9-16.1c0,0,0,0,0,0c0,0,0,0,0,0l0,0c0,0,0,0,0,0c0.2-0.2,0.4-0.4,0.5-0.5c0.3-0.3,0.5-0.6,0.8-0.9
		c0.5-0.6,1.1-1.1,1.6-1.7c0.3-0.3,0.5-0.6,0.7-0.9c0.6-0.7,1.2-1.3,1.7-2c0.2-0.2,0.3-0.4,0.5-0.6c0.6-0.8,1.2-1.6,1.8-2.4
		c0.1-0.1,0.1-0.2,0.2-0.3c20.5-28.8,17.9-69-7.9-94.8c-8.8-8.8-19.2-14.9-30.4-18.3c-0.1,0-0.3-0.1-0.4-0.1
		c-0.9-0.3-1.9-0.5-2.8-0.8c-0.2-0.1-0.4-0.1-0.7-0.2c-0.9-0.2-1.9-0.4-2.8-0.6c-0.2,0-0.4-0.1-0.7-0.2c-1.1-0.2-2.2-0.4-3.3-0.6
		c-0.1,0-0.2,0-0.3,0c-4.8-0.7-9.7-1-14.6-0.7c0,0-0.1,0-0.1,0c-1.1,0.1-2.3,0.1-3.4,0.3c-0.9,0.1-1.8,0.2-2.7,0.3
		c-0.2,0-0.5,0.1-0.8,0.1c-8.3,1.2-16.2,3.8-23.6,7.6c0,0,0,0,0,0c-0.9,0.5-1.8,1-2.7,1.5c-0.2,0.1-0.3,0.2-0.5,0.3
		c-0.8,0.4-1.5,0.9-2.2,1.4c-0.3,0.2-0.6,0.4-0.9,0.6c-0.6,0.4-1.1,0.8-1.7,1.2c-0.4,0.3-0.9,0.6-1.3,0.9c-0.4,0.3-0.8,0.6-1.2,0.9
		c-0.6,0.4-1.1,0.9-1.7,1.3c-0.3,0.2-0.5,0.4-0.8,0.6c-0.7,0.6-1.4,1.2-2.1,1.8c-0.1,0.1-0.2,0.2-0.3,0.3c-0.8,0.7-1.6,1.5-2.4,2.2
		c-1.3,1.3-2.6,2.7-3.9,4.1c-0.4,0.4-0.7,0.8-1.1,1.2c-0.9,1-1.7,2-2.6,3c-0.3,0.4-0.6,0.7-0.9,1.1c-0.9,1.1-1.7,2.2-2.6,3.3
		c-0.2,0.2-0.3,0.4-0.4,0.6c-0.9,1.3-1.9,2.6-2.8,4c0,0,0,0,0,0C38,99.3,31.7,120.3,31.6,142.3c0,12.6,2.1,24.8,6.1,36.4
		c0,0.1,0.1,0.3,0.1,0.4c0.5,1.3,0.9,2.6,1.4,3.8c0.2,0.5,0.3,0.9,0.5,1.4c0.4,0.9,0.8,1.8,1.2,2.7c0.4,0.8,0.7,1.6,1.1,2.4
		c0.2,0.5,0.5,0.9,0.7,1.4c5.2,10.8,12.3,20.9,21.3,29.9c8.7,8.7,18.5,15.6,29,20.8c-17.6-5.7-33.7-15.5-47.2-28.9
		C23.6,190.3,11.3,160.7,11.3,129.2 M106.1,135.5c-3.5,0-6.3-2.8-6.3-6.3c0-3.5,2.8-6.3,6.3-6.3H123v-16.8c0-3.5,2.8-6.3,6.3-6.3
		c3.5,0,6.3,2.8,6.3,6.3v16.8h16.8c3.5,0,6.3,2.8,6.3,6.3c0,3.5-2.8,6.3-6.3,6.3h-16.8v16.8c0,3.5-2.8,6.3-6.3,6.3
		c-3.5,0-6.3-2.8-6.3-6.3v-16.8H106.1"/>
</g>
</svg>
