<?xml version="1.0" encoding="utf-8"?>
<!-- Generator: Adobe Illustrator 21.0.0, SVG Export Plug-In . SVG Version: 6.00 Build 0)  -->
<!DOCTYPE svg PUBLIC "-//W3C//DTD SVG 1.1//EN" "http://www.w3.org/Graphics/SVG/1.1/DTD/svg11.dtd">
<svg version="1.1" id="Layer_1" xmlns="http://www.w3.org/2000/svg" xmlns:xlink="http://www.w3.org/1999/xlink" x="0px" y="0px"
	 viewBox="0 0 135.4 190.6" style="enable-background:new 0 0 135.4 190.6;" xml:space="preserve">
<path d="M130.9,72.8c-6.7-9.3-13.5-18.6-20.3-27.8C100.5,31.3,90.5,17.6,80.4,4c-3.4-4.6-6.5-5.2-9.9-1.8
	c-5.6,5.5-10.8,11.3-16.1,17c-1.8,1.8-3.6,3.5-5.2,5.3C33.4,41.2,17.7,58,2.2,74.9c-1.4,1.5-1.9,4-2.2,6.1c-0.1,0.4,3,1.8,4.6,1.8
	c30.5,0.1,60.9,0.1,91.4,0c1.6,0,3.2-0.7,4.8-1.1c0-0.8,0-1.7,0-2.5c-23.8-4.2-48.2-3.9-72.8-6.8C40.6,58.3,53,44.7,65.3,31
	c2.9-2.6,5.7-5.3,8.9-8.2c2.3,2.8,4.3,5.2,6.3,7.7c10,12.8,20,25.6,29.9,38.3c1.9,2.7,3.6,5.6,5.8,8c4.4,4.6,5.7,9.9,5.4,16.2
	c-0.7,14.5-0.7,29.1-0.9,43.6l0,0c-0.3,10-0.7,19.9-1,29.9c-0.5,0.3-1,0.5-1.6,0.8c-14.3-10.6-28.7-21.1-43.3-31.9
	c8.2-8.7,15.7-16.6,23.2-24.6c3.8-3.9,7.8-7.6,11.3-11.8c0.9-1,0.4-3.2,0.5-4.9c-1.5,0.3-3.3,0.1-4.4,0.9
	c-4.2,3.2-8.1,6.8-12.1,10.2c-9.2,7.6-18.3,15.1-27.5,22.8c-2.1-1.5-3.8-2.8-5.5-4c-12.6-8.6-25.2-17.2-37.8-25.7
	c-2.3-1.3-4.5-2.8-6.9-3.8c-3.6-1.6-6.4,0.3-5.4,4c0.7,2.8,2.7,5.8,4.9,7.6C23.9,113.3,33,120.1,42,127c4.4,3.4,8.7,6.9,13.4,10.6
	c-12.1,10.4-23.6,20.3-35.1,30.1c-5.1,4.4-5.9,10.1-1.9,15.3c2.4,3.2,5.4,4.1,8.5,1c12.6-12.8,25.1-25.7,37.6-38.5
	c2.2,1.4,4.5,2.7,6.6,4.2c16.6,12.8,33.1,25.7,49.6,38.5c5.2,4,9.8,2.9,12.5-3c0.8-1.8,1.4-3.8,1.4-5.7c0.1-11,0-21.9-0.1-32.9
	c-0.5-0.3-1-0.6-1.5-0.9c0.5,0.3,1,0.6,1.5,0.9c0.1-15.2,0.1-30.5,0.2-45.7c0-4.4,0.1-8.9,0.1-13.3
	C136.5,81.9,134.1,77.2,130.9,72.8z"/>
</svg>
