<svg id="Layer_1" data-name="Layer 1" xmlns="http://www.w3.org/2000/svg" viewBox="0 0 64.01 64"><title>pinterest</title><path d="M0,32A31.28,31.28,0,0,1,9.63,9.26,31.45,31.45,0,0,1,32,0Q46,.25,54.94,9.56A31.71,31.71,0,0,1,64,32a31.37,31.37,0,0,1-9.63,22.69A31.34,31.34,0,0,1,32,64a30.7,30.7,0,0,1-9-1.38,35,35,0,0,0,1.75-3.12,52.67,52.67,0,0,0,2.5-8q.37-1.62,1.13-4.38a8.14,8.14,0,0,0,3,2.75q5.63,2.62,11.87-.5a19.7,19.7,0,0,0,9-11.62,23.63,23.63,0,0,0-.56-15.31A18.05,18.05,0,0,0,41.63,12.25a27.81,27.81,0,0,0-17.75.56,20,20,0,0,0-12,10.94,25.48,25.48,0,0,0-1.06,5.69,26.6,26.6,0,0,0,.19,5.5,10.81,10.81,0,0,0,1.88,4.81,9.63,9.63,0,0,0,4,3.25,1,1,0,0,0,1,0q.5-.25,1-2a6.22,6.22,0,0,0,.38-2.37c-.08-.17-.25-.46-.5-.88A12.21,12.21,0,0,1,17,28.82a15.67,15.67,0,0,1,3.87-7.94,17.38,17.38,0,0,1,10.81-4.5,14.29,14.29,0,0,1,10.56,3.37,13.5,13.5,0,0,1,3.06,6.62,20.31,20.31,0,0,1,0,7.44,22.37,22.37,0,0,1-2.44,6.69q-3.13,4.88-7.37,5a5.5,5.5,0,0,1-4.06-1.94,4.34,4.34,0,0,1-.93-4.19Q30.75,38,32,34a28.44,28.44,0,0,0,1.38-6Q33,23.26,29,23.13a6,6,0,0,0-4.63,2.81,11.22,11.22,0,0,0-1.63,5.56,14.71,14.71,0,0,0,1.13,5q-1.37,5.63-2.13,9-.25.87-1.38,5.38a39.57,39.57,0,0,0-1.25,6.87v3.5a32.94,32.94,0,0,1-14-11.94A31,31,0,0,1,0,32Z"/></svg>